<svg width="250" height="250" viewBox="0 0 250 250" fill="none" xmlns="http://www.w3.org/2000/svg">
<g filter="url(#filter0_f_1_2)">
<rect x="25" y="25" width="200" height="200" rx="24" fill="black"/>
<rect x="22" y="22" width="206" height="206" rx="27" stroke="#24A90E" stroke-width="6"/>
</g>
<rect x="22" y="22" width="206" height="206" rx="27" fill="black" stroke="#24A90E" stroke-width="6"/>
<g filter="url(#filter1_f_1_2)">
<path d="M158.159 84.9091C157.307 77.7121 153.85 72.125 147.79 68.1477C141.729 64.1705 134.295 62.1818 125.489 62.1818C119.049 62.1818 113.415 63.2235 108.585 65.3068C103.803 67.3901 100.063 70.2547 97.3636 73.9006C94.7121 77.5464 93.3864 81.6894 93.3864 86.3295C93.3864 90.2121 94.3097 93.5502 96.1562 96.3438C98.0502 99.09 100.465 101.386 103.401 103.233C106.336 105.032 109.414 106.524 112.634 107.707C115.853 108.844 118.812 109.767 121.511 110.477L136.284 114.455C140.072 115.449 144.286 116.822 148.926 118.574C153.614 120.326 158.088 122.717 162.349 125.747C166.658 128.73 170.209 132.565 173.003 137.253C175.796 141.94 177.193 147.693 177.193 154.511C177.193 162.371 175.134 169.473 171.014 175.818C166.942 182.163 160.976 187.205 153.116 190.946C145.304 194.687 135.811 196.557 124.636 196.557C114.22 196.557 105.2 194.876 97.5767 191.514C90.0009 188.152 84.035 183.465 79.679 177.452C75.3703 171.438 72.9318 164.455 72.3636 156.5H90.5455C91.0189 161.992 92.8655 166.538 96.0852 170.136C99.3523 173.687 103.472 176.339 108.443 178.091C113.462 179.795 118.86 180.648 124.636 180.648C131.36 180.648 137.397 179.559 142.747 177.381C148.098 175.155 152.335 172.078 155.46 168.148C158.585 164.17 160.148 159.53 160.148 154.227C160.148 149.398 158.798 145.468 156.099 142.438C153.401 139.407 149.849 136.945 145.446 135.051C141.043 133.157 136.284 131.5 131.17 130.08L113.273 124.966C101.909 121.699 92.9129 117.035 86.2841 110.974C79.6553 104.914 76.3409 96.983 76.3409 87.1818C76.3409 79.0379 78.5426 71.9356 82.946 65.875C87.3968 59.767 93.3627 55.0322 100.844 51.6705C108.372 48.2614 116.777 46.5568 126.057 46.5568C135.432 46.5568 143.765 48.2377 151.057 51.5994C158.348 54.9138 164.125 59.4593 168.386 65.2358C172.695 71.0123 174.968 77.5701 175.205 84.9091H158.159Z" fill="#7DC471"/>
</g>
<path d="M158.159 84.9091C157.307 77.7121 153.85 72.125 147.79 68.1477C141.729 64.1705 134.295 62.1818 125.489 62.1818C119.049 62.1818 113.415 63.2235 108.585 65.3068C103.803 67.3901 100.063 70.2547 97.3636 73.9006C94.7121 77.5464 93.3864 81.6894 93.3864 86.3295C93.3864 90.2121 94.3097 93.5502 96.1562 96.3438C98.0502 99.09 100.465 101.386 103.401 103.233C106.336 105.032 109.414 106.524 112.634 107.707C115.853 108.844 118.812 109.767 121.511 110.477L136.284 114.455C140.072 115.449 144.286 116.822 148.926 118.574C153.614 120.326 158.088 122.717 162.349 125.747C166.658 128.73 170.209 132.565 173.003 137.253C175.796 141.94 177.193 147.693 177.193 154.511C177.193 162.371 175.134 169.473 171.014 175.818C166.942 182.163 160.976 187.205 153.116 190.946C145.304 194.687 135.811 196.557 124.636 196.557C114.22 196.557 105.2 194.876 97.5767 191.514C90.0009 188.152 84.035 183.465 79.679 177.452C75.3703 171.438 72.9318 164.455 72.3636 156.5H90.5455C91.0189 161.992 92.8655 166.538 96.0852 170.136C99.3523 173.687 103.472 176.339 108.443 178.091C113.462 179.795 118.86 180.648 124.636 180.648C131.36 180.648 137.397 179.559 142.747 177.381C148.098 175.155 152.335 172.078 155.46 168.148C158.585 164.17 160.148 159.53 160.148 154.227C160.148 149.398 158.798 145.468 156.099 142.438C153.401 139.407 149.849 136.945 145.446 135.051C141.043 133.157 136.284 131.5 131.17 130.08L113.273 124.966C101.909 121.699 92.9129 117.035 86.2841 110.974C79.6553 104.914 76.3409 96.983 76.3409 87.1818C76.3409 79.0379 78.5426 71.9356 82.946 65.875C87.3968 59.767 93.3627 55.0322 100.844 51.6705C108.372 48.2614 116.777 46.5568 126.057 46.5568C135.432 46.5568 143.765 48.2377 151.057 51.5994C158.348 54.9138 164.125 59.4593 168.386 65.2358C172.695 71.0123 174.968 77.5701 175.205 84.9091H158.159Z" fill="#5CF542"/>
<defs>
<filter id="filter0_f_1_2" x="4" y="4" width="242" height="242" filterUnits="userSpaceOnUse" color-interpolation-filters="sRGB">
<feFlood flood-opacity="0" result="BackgroundImageFix"/>
<feBlend mode="normal" in="SourceGraphic" in2="BackgroundImageFix" result="shape"/>
<feGaussianBlur stdDeviation="7.5" result="effect1_foregroundBlur_1_2"/>
</filter>
<filter id="filter1_f_1_2" x="64.3636" y="38.5568" width="120.83" height="166" filterUnits="userSpaceOnUse" color-interpolation-filters="sRGB">
<feFlood flood-opacity="0" result="BackgroundImageFix"/>
<feBlend mode="normal" in="SourceGraphic" in2="BackgroundImageFix" result="shape"/>
<feGaussianBlur stdDeviation="4" result="effect1_foregroundBlur_1_2"/>
</filter>
</defs>
</svg>
